<svg width="18" height="18" viewBox="0 0 18 18" fill="none" xmlns="http://www.w3.org/2000/svg">
<path d="M13.245 17.0025C12.8475 17.0025 12.3375 16.875 11.7 16.5L9.45747 15.1725C9.22497 15.0375 8.77497 15.0375 8.54997 15.1725L6.29997 16.5C4.97247 17.2875 4.19247 16.9725 3.83997 16.7175C3.49497 16.4625 2.95497 15.81 3.30747 14.31L3.83997 12.0075C3.89997 11.7675 3.77997 11.355 3.59997 11.175L1.73997 9.315C0.809966 8.385 0.884966 7.59 1.01247 7.2C1.13997 6.81 1.54497 6.12 2.83497 5.9025L5.22747 5.505C5.45247 5.4675 5.77497 5.2275 5.87247 5.025L7.19997 2.3775C7.79997 1.17 8.58747 0.990002 8.99997 0.990002C9.41247 0.990002 10.2 1.17 10.8 2.3775L12.12 5.0175C12.225 5.22 12.5475 5.46 12.7725 5.4975L15.165 5.895C16.4625 6.1125 16.8675 6.8025 16.9875 7.1925C17.1075 7.5825 17.1825 8.3775 16.26 9.3075L14.4 11.175C14.22 11.355 14.1075 11.76 14.16 12.0075L14.6925 14.31C15.0375 15.81 14.505 16.4625 14.16 16.7175C13.9725 16.8525 13.6725 17.0025 13.245 17.0025Z" fill="#FF7B0D"/>
</svg>
