<svg width="24" height="24" viewBox="0 0 24 24" fill="none" xmlns="http://www.w3.org/2000/svg">
<path opacity="0.4" d="M21.49 7.80863V7.81V16.19C21.49 17.9106 20.9791 19.2238 20.0964 20.1064C19.2138 20.9891 17.9006 21.5 16.18 21.5H7.81C6.08945 21.5 4.77634 20.9891 3.89377 20.1054C3.01114 19.2217 2.5 17.9059 2.5 16.18V7.81C2.5 6.08944 3.01093 4.77618 3.89355 3.89355C4.77618 3.01093 6.08944 2.5 7.81 2.5H16.19C17.9107 2.5 19.2237 3.01097 20.105 3.89333C20.9861 4.77559 21.4947 6.08838 21.49 7.80863Z" fill="white" stroke="white"/>
<path d="M10.2264 14.1236L10.5799 14.4771L10.9335 14.1236L16.0735 8.98356C16.1682 8.88882 16.3317 8.88882 16.4264 8.98356C16.5211 9.0783 16.5211 9.24171 16.4264 9.33645L10.7564 15.0065C10.7091 15.0538 10.6458 15.08 10.5799 15.08C10.5141 15.08 10.4508 15.0538 10.4035 15.0065L7.57349 12.1765C7.47876 12.0817 7.47876 11.9183 7.57349 11.8236C7.66823 11.7288 7.83165 11.7288 7.92639 11.8236L10.2264 14.1236Z" fill="white" stroke="white"/>
</svg>
